<svg width="111" height="41" viewBox="0 0 111 41" fill="none" xmlns="http://www.w3.org/2000/svg">
<path d="M70.235 17.5916V20.0326H60.7482V7.06271H63.6846V17.5916H70.235Z" fill="white"/>
<path d="M80.7533 17.1181C80.4523 18.1261 79.8939 18.9094 79.0783 19.468C78.275 20.0266 77.315 20.3059 76.1983 20.3059C74.7048 20.3059 73.4999 19.8566 72.5844 18.9579C71.6805 18.0593 71.2286 16.8692 71.2286 15.3876C71.2286 13.9303 71.6871 12.728 72.6033 11.7808C73.5188 10.8336 74.6858 10.3599 76.1043 10.3599C77.5723 10.3599 78.7393 10.8457 79.6053 11.8172C80.4712 12.7766 80.9042 14.0821 80.9042 15.7337V15.9887H73.9394C73.9518 16.8024 74.153 17.4217 74.5415 17.8468C74.9431 18.2718 75.5015 18.4843 76.2173 18.4843C77.1583 18.4843 77.8172 18.0289 78.1934 17.1181H80.7533ZM78.1934 14.3492C78.1307 13.7299 77.9237 13.2259 77.5723 12.8373C77.221 12.4366 76.7319 12.2362 76.1043 12.2362C75.5146 12.2362 75.0248 12.4245 74.6363 12.8009C74.247 13.1774 74.0145 13.6935 73.9394 14.3492H78.1934Z" fill="white"/>
<path d="M91.4684 20.0327H88.7575C88.6693 19.7898 88.6066 19.4862 88.5695 19.1219C87.7538 19.9112 86.7056 20.3059 85.4257 20.3059C84.3469 20.3059 83.4991 20.057 82.8847 19.5591C82.2695 19.049 81.9619 18.3508 81.9619 17.4642C81.9619 17.0635 82.0121 16.7113 82.1127 16.4077C82.2257 16.1041 82.4014 15.849 82.6397 15.6427C82.8905 15.4362 83.123 15.2662 83.3366 15.1326C83.5626 14.999 83.8694 14.8897 84.2587 14.8047C84.6479 14.7197 84.9613 14.6589 85.1997 14.6225C85.4381 14.574 85.7712 14.5254 86.1976 14.4768C87.1386 14.3554 87.7662 14.2278 88.0796 14.0942C88.4062 13.9607 88.5695 13.7117 88.5695 13.3474C88.5695 12.5094 87.9856 12.0904 86.8186 12.0904C86.2041 12.0904 85.7522 12.1997 85.4636 12.4183C85.1749 12.6248 84.9869 12.9952 84.8987 13.5296H82.3948C82.5457 11.4165 84.0451 10.3599 86.8937 10.3599C89.7175 10.3599 91.1294 11.3801 91.1294 13.4203V17.4825C91.1294 18.6726 91.2424 19.5227 91.4684 20.0327ZM88.5505 15.4605C88.2371 15.6427 87.6095 15.8066 86.6685 15.9523C85.8776 16.0738 85.363 16.2255 85.1246 16.4077C84.8484 16.6384 84.7106 16.9542 84.7106 17.3549C84.7106 17.7435 84.836 18.0532 85.0867 18.2839C85.3506 18.5025 85.7143 18.6118 86.1786 18.6118C86.8937 18.6118 87.4652 18.4297 87.8916 18.0654C88.3311 17.6889 88.5505 17.1728 88.5505 16.517V15.4605Z" fill="white"/>
<path d="M99.5477 10.4692V12.8555C99.1715 12.7826 98.826 12.7462 98.5126 12.7462C97.6343 12.7462 96.9877 13.0194 96.5737 13.5659C96.1597 14.1002 95.9527 14.8228 95.9527 15.7337V20.0327H93.2797V10.6331H95.8207V12.3636C96.4607 11.0642 97.5082 10.4145 98.9645 10.4145C99.0899 10.4145 99.2845 10.4327 99.5477 10.4692Z" fill="white"/>
<path d="M110.038 20.0325H107.327V14.5494C107.327 13.8815 107.214 13.3775 106.988 13.0375C106.762 12.6853 106.323 12.5092 105.67 12.5092C104.264 12.5092 103.562 13.335 103.562 14.9866V20.0325H100.908V10.6329H103.449V11.9445C104.252 10.9001 105.325 10.3779 106.668 10.3779C107.709 10.3779 108.532 10.6694 109.134 11.2523C109.736 11.8352 110.038 12.6671 110.038 13.7479V20.0325Z" fill="white"/>
<path d="M72.155 23.0019V30.7984C72.155 32.6564 71.6907 34.0287 70.7621 34.9152C69.8465 35.7896 68.4091 36.2267 66.4518 36.2267C64.469 36.2267 63.007 35.7835 62.0659 34.897C61.1372 33.9984 60.6729 32.62 60.6729 30.762V23.0019H63.6094V30.762C63.6094 31.8185 63.8164 32.6018 64.2306 33.1118C64.6447 33.6219 65.3977 33.8769 66.4894 33.8769C67.5435 33.8769 68.259 33.6219 68.6351 33.1118C69.0243 32.6018 69.2189 31.8185 69.2189 30.762V23.0019H72.155Z" fill="white"/>
<path d="M76.9403 26.5721V27.738C77.643 26.7907 78.6467 26.317 79.9522 26.317C81.257 26.317 82.3051 26.7725 83.096 27.6833C83.8862 28.5941 84.282 29.8085 84.282 31.3265C84.282 32.796 83.8927 33.98 83.1142 34.8786C82.3489 35.7651 81.3328 36.2085 80.0652 36.2085C78.7597 36.2085 77.7625 35.7409 77.0723 34.8058V39.3051H74.4183V26.5721H76.9403ZM79.2933 28.3937C78.5658 28.3937 77.9943 28.6487 77.5803 29.1588C77.1787 29.6689 76.9782 30.3793 76.9782 31.2901C76.9782 32.2009 77.1852 32.9113 77.5993 33.4214C78.0133 33.9314 78.584 34.1865 79.3122 34.1865C80.0273 34.1865 80.5856 33.9314 80.9873 33.4214C81.4013 32.9113 81.6083 32.213 81.6083 31.3265C81.6083 30.4157 81.4013 29.6992 80.9873 29.177C80.5732 28.6548 80.0083 28.3937 79.2933 28.3937Z" fill="white"/>
<path d="M27.6066 0.0454407L20.7551 3.94751L42.1291 15.9075L49.079 12.0054L27.6066 0.0454407Z" fill="white"/>
<path d="M13.8705 14.1311L20.722 10.2291L42.1944 22.189L35.2445 26.091L13.8705 14.1311Z" fill="white"/>
<path d="M0.102417 28.2483L6.95393 24.3462L28.426 36.3062L28.3604 30.0251L35.3103 26.1228V32.436L21.4763 40.2082L0.102417 28.2483Z" fill="white"/>
<path d="M42.1289 15.9079L49.0788 12.0059V18.319L42.1946 22.1893L42.1289 15.9079Z" fill="white"/>
</svg>
